<svg width="1280" height="680" viewBox="0 0 1280 680" xmlns="http://www.w3.org/2000/svg" font-family="Helvetica, Arial, sans-serif">
  <defs>
    <radialGradient id="bg2" cx="50%" cy="30%" r="85%">
      <stop offset="0%" stop-color="#241a3f"/><stop offset="55%" stop-color="#1a1430"/><stop offset="100%" stop-color="#0d0a1c"/>
    </radialGradient>
    <filter id="cardShadow" x="-20%" y="-20%" width="140%" height="140%">
      <feDropShadow dx="0" dy="3" stdDeviation="6" flood-color="#000000" flood-opacity="0.4"/>
    </filter>
  </defs>

  <rect width="1280" height="680" fill="url(#bg2)"/>

  <text x="640" y="50" text-anchor="middle" fill="#b9b0d8" font-size="14" letter-spacing="6" font-weight="500">TERMINUS · INFRA &amp; OPS DOMAIN</text>
  <text x="640" y="86" text-anchor="middle" fill="#ffffff" font-size="30" font-weight="700" letter-spacing="2">14 MODULES · ~76 TOOLS</text>
  <line x1="470" y1="104" x2="810" y2="104" stroke="#6b5bbf" stroke-width="1" opacity="0.5"/>

  <!-- Row 1: GUARDED (red-tinged) -->
  <text x="150" y="150" fill="#f0b8b8" font-size="12.5" letter-spacing="3" font-weight="600">GUARDED — approval gate required</text>
  <g font-size="12.5" font-weight="600">
    <rect x="150" y="164" width="230" height="70" rx="10" fill="#2b1c22" stroke="#e85c5c" stroke-width="1.2"/>
    <circle cx="172" cy="188" r="5" fill="#e85c5c"/><text x="186" y="192" fill="#e8e3f7">ansible</text>
    <text x="170" y="212" fill="#e0a5a5" font-size="10.5" font-weight="400" font-family="'Courier New',monospace">4 tools · SSH playbooks</text>

    <rect x="400" y="164" width="230" height="70" rx="10" fill="#2b1c22" stroke="#e85c5c" stroke-width="1.2"/>
    <circle cx="422" cy="188" r="5" fill="#e85c5c"/><text x="436" y="192" fill="#e8e3f7"><secret-manager></text>
    <text x="420" y="212" fill="#e0a5a5" font-size="10.5" font-weight="400" font-family="'Courier New',monospace">5 tools · vault reads</text>

    <rect x="650" y="164" width="230" height="70" rx="10" fill="#2b1c22" stroke="#e85c5c" stroke-width="1.2"/>
    <circle cx="672" cy="188" r="5" fill="#e85c5c"/><text x="686" y="192" fill="#e8e3f7">approval</text>
    <text x="670" y="212" fill="#e0a5a5" font-size="10.5" font-weight="400" font-family="'Courier New',monospace">2 tools · grant/deny gate</text>
  </g>

  <!-- Row 2: read-only metrics/containers -->
  <text x="150" y="270" fill="#9fb4ff" font-size="12.5" letter-spacing="3" font-weight="600">READ-ONLY HTTP — metrics &amp; containers</text>
  <g font-size="12.5" font-weight="600">
    <rect x="150" y="284" width="230" height="70" rx="10" fill="#241c42" stroke="#4a6cf6" stroke-width="1"/>
    <circle cx="172" cy="308" r="5" fill="#4a6cf6"/><text x="186" y="312" fill="#e8e3f7">prometheus</text>
    <text x="170" y="332" fill="#a89fc8" font-size="10.5" font-weight="400" font-family="'Courier New',monospace">6 tools · PromQL</text>

    <rect x="400" y="284" width="230" height="70" rx="10" fill="#241c42" stroke="#4a6cf6" stroke-width="1"/>
    <circle cx="422" cy="308" r="5" fill="#4a6cf6"/><text x="436" y="312" fill="#e8e3f7"><container-mgr></text>
    <text x="420" y="332" fill="#a89fc8" font-size="10.5" font-weight="400" font-family="'Courier New',monospace">4 tools · Docker/self-signed</text>

    <rect x="650" y="284" width="230" height="70" rx="10" fill="#241c42" stroke="#4a6cf6" stroke-width="1"/>
    <circle cx="672" cy="308" r="5" fill="#4a6cf6"/><text x="686" y="312" fill="#e8e3f7">network</text>
    <text x="670" y="332" fill="#a89fc8" font-size="10.5" font-weight="400" font-family="'Courier New',monospace">5 tools · ping/DNS/TCP</text>

    <rect x="900" y="284" width="230" height="70" rx="10" fill="#241c42" stroke="#4a6cf6" stroke-width="1"/>
    <circle cx="922" cy="308" r="5" fill="#4a6cf6"/><text x="936" y="312" fill="#e8e3f7">sysversion</text>
    <text x="920" y="332" fill="#a89fc8" font-size="10.5" font-weight="400" font-family="'Courier New',monospace">1 tool · fleet-wide probe</text>
  </g>

  <!-- Row 3: fleet-host SSH bridges -->
  <text x="150" y="390" fill="#7fe0b8" font-size="12.5" letter-spacing="3" font-weight="600">FLEET-HOST BRIDGES — SSH + admin API</text>
  <g font-size="12.5" font-weight="600">
    <rect x="150" y="404" width="230" height="70" rx="10" fill="#132a22" stroke="#10b981" stroke-width="1"/>
    <circle cx="172" cy="428" r="5" fill="#10b981"/><text x="186" y="432" fill="#e8e3f7">dura</text>
    <text x="170" y="452" fill="#8fe3c0" font-size="10.5" font-weight="400" font-family="'Courier New',monospace">7 tools · sysadmin SSH</text>

    <rect x="400" y="404" width="230" height="70" rx="10" fill="#132a22" stroke="#10b981" stroke-width="1"/>
    <circle cx="422" cy="428" r="5" fill="#10b981"/><text x="436" y="432" fill="#e8e3f7">soma</text>
    <text x="420" y="452" fill="#8fe3c0" font-size="10.5" font-weight="400" font-family="'Courier New',monospace">10 tools · admin API</text>

    <rect x="650" y="404" width="230" height="70" rx="10" fill="#132a22" stroke="#10b981" stroke-width="1"/>
    <circle cx="672" cy="428" r="5" fill="#10b981"/><text x="686" y="432" fill="#e8e3f7">synapse</text>
    <text x="670" y="452" fill="#8fe3c0" font-size="10.5" font-weight="400" font-family="'Courier New',monospace">3 tools · Pulse gate</text>

    <rect x="900" y="404" width="230" height="70" rx="10" fill="#132a22" stroke="#10b981" stroke-width="1"/>
    <circle cx="922" cy="428" r="5" fill="#10b981"/><text x="936" y="432" fill="#e8e3f7">sentinel</text>
    <text x="920" y="452" fill="#8fe3c0" font-size="10.5" font-weight="400" font-family="'Courier New',monospace">3 tools · ops checks</text>

    <rect x="150" y="484" width="230" height="70" rx="10" fill="#132a22" stroke="#10b981" stroke-width="1"/>
    <circle cx="172" cy="508" r="5" fill="#10b981"/><text x="186" y="512" fill="#e8e3f7">vigil</text>
    <text x="170" y="532" fill="#8fe3c0" font-size="10.5" font-weight="400" font-family="'Courier New',monospace">2 tools · briefings</text>

    <rect x="400" y="484" width="230" height="70" rx="10" fill="#132a22" stroke="#10b981" stroke-width="1"/>
    <circle cx="422" cy="508" r="5" fill="#10b981"/><text x="436" y="512" fill="#e8e3f7">dashboard (gateway)</text>
    <text x="420" y="532" fill="#8fe3c0" font-size="10.5" font-weight="400" font-family="'Courier New',monospace">6 tools · Homepage YAML</text>

    <rect x="650" y="484" width="230" height="70" rx="10" fill="#241c42" stroke="#8b5cf6" stroke-width="1"/>
    <circle cx="672" cy="508" r="5" fill="#8b5cf6"/><text x="686" y="512" fill="#e8e3f7">sundry</text>
    <text x="670" y="532" fill="#a89fc8" font-size="10.5" font-weight="400" font-family="'Courier New',monospace">6 tools · misc/health/search</text>
  </g>

  <rect x="150" y="586" width="980" height="66" rx="12" fill="#19161f" stroke="#3a3358" stroke-width="1"/>
  <text x="640" y="610" text-anchor="middle" fill="#cbc4e6" font-size="12.5" font-weight="600">Every host/user/key/URL comes from an env var — no hardcoded IPs, hostnames, or credentials anywhere in this domain</text>
  <text x="640" y="630" text-anchor="middle" fill="#8d84ad" font-size="10.5" font-family="'Courier New',monospace">3 GUARDED modules gate through approval::gate() · 11 read-only or fixed-command · zero self-serve secret paths</text>
</svg>
